<svg xmlns="http://www.w3.org/2000/svg" xmlns:xlink="http://www.w3.org/1999/xlink" width="150" zoomAndPan="magnify" viewBox="0 0 112.5 37.5" height="50" preserveAspectRatio="xMidYMid meet" version="1.0"><defs><g/><clipPath id="babbb79feb"><path d="M 0.492188 0 L 111.511719 0 L 111.511719 37.007812 L 0.492188 37.007812 Z M 0.492188 0 " clip-rule="nonzero"/></clipPath><clipPath id="111efe4f3c"><path d="M 37.023438 24.683594 L 74.980469 24.683594 L 74.980469 33.191406 L 37.023438 33.191406 Z M 37.023438 24.683594 " clip-rule="nonzero"/></clipPath><clipPath id="1982f84d3d"><path d="M 52 22.566406 L 54 22.566406 L 54 25 L 52 25 Z M 52 22.566406 " clip-rule="nonzero"/></clipPath></defs><g clip-path="url(#babbb79feb)"><path fill="#ffffff" d="M 0.492188 0 L 111.511719 0 L 111.511719 37.007812 L 0.492188 37.007812 Z M 0.492188 0 " fill-opacity="1" fill-rule="nonzero"/><path fill="#ffffff" d="M 0.492188 0 L 111.511719 0 L 111.511719 37.007812 L 0.492188 37.007812 Z M 0.492188 0 " fill-opacity="1" fill-rule="nonzero"/></g><g fill="#1d6638" fill-opacity="1"><g transform="translate(9.518311, 18.894632)"><g><path d="M 6.8125 0.078125 C 5.625 0.078125 4.585938 -0.140625 3.703125 -0.578125 C 2.816406 -1.015625 2.140625 -1.632812 1.671875 -2.4375 C 1.203125 -3.238281 0.96875 -4.171875 0.96875 -5.234375 C 0.96875 -6.710938 1.242188 -8.019531 1.796875 -9.15625 C 2.359375 -10.300781 3.113281 -11.1875 4.0625 -11.8125 C 5.007812 -12.445312 6.066406 -12.765625 7.234375 -12.765625 C 8.316406 -12.765625 9.140625 -12.484375 9.703125 -11.921875 C 10.265625 -11.367188 10.546875 -10.632812 10.546875 -9.71875 C 10.546875 -9.101562 10.4375 -8.609375 10.21875 -8.234375 C 10.007812 -7.867188 9.703125 -7.6875 9.296875 -7.6875 C 9.015625 -7.6875 8.789062 -7.75 8.625 -7.875 C 8.46875 -8.007812 8.390625 -8.203125 8.390625 -8.453125 C 8.390625 -8.546875 8.410156 -8.710938 8.453125 -8.953125 C 8.515625 -9.253906 8.546875 -9.492188 8.546875 -9.671875 C 8.546875 -10.585938 8.0625 -11.046875 7.09375 -11.046875 C 6.425781 -11.046875 5.789062 -10.828125 5.1875 -10.390625 C 4.582031 -9.960938 4.09375 -9.328125 3.71875 -8.484375 C 3.351562 -7.648438 3.171875 -6.65625 3.171875 -5.5 C 3.171875 -4.300781 3.503906 -3.375 4.171875 -2.71875 C 4.847656 -2.0625 5.84375 -1.734375 7.15625 -1.734375 C 7.8125 -1.734375 8.472656 -1.816406 9.140625 -1.984375 C 9.804688 -2.148438 10.546875 -2.398438 11.359375 -2.734375 C 11.515625 -2.796875 11.640625 -2.828125 11.734375 -2.828125 C 11.898438 -2.828125 12.019531 -2.765625 12.09375 -2.640625 C 12.175781 -2.523438 12.21875 -2.375 12.21875 -2.1875 C 12.21875 -1.570312 11.882812 -1.117188 11.21875 -0.828125 C 10.507812 -0.515625 9.769531 -0.285156 9 -0.140625 C 8.238281 0.00390625 7.507812 0.078125 6.8125 0.078125 Z M 6.8125 0.078125 "/></g></g></g><g fill="#1d6638" fill-opacity="1"><g transform="translate(19.836456, 18.894632)"><g><path d="M 1.796875 0.078125 C 1.410156 0.078125 1.140625 -0.117188 0.984375 -0.515625 C 0.828125 -0.921875 0.75 -1.566406 0.75 -2.453125 C 0.75 -3.753906 0.9375 -4.992188 1.3125 -6.171875 C 1.394531 -6.460938 1.539062 -6.675781 1.75 -6.8125 C 1.957031 -6.945312 2.25 -7.015625 2.625 -7.015625 C 2.820312 -7.015625 2.957031 -6.988281 3.03125 -6.9375 C 3.113281 -6.882812 3.15625 -6.789062 3.15625 -6.65625 C 3.15625 -6.488281 3.082031 -6.125 2.9375 -5.5625 C 2.832031 -5.164062 2.75 -4.816406 2.6875 -4.515625 C 2.632812 -4.210938 2.585938 -3.84375 2.546875 -3.40625 C 2.878906 -4.257812 3.25 -4.957031 3.65625 -5.5 C 4.0625 -6.039062 4.460938 -6.425781 4.859375 -6.65625 C 5.265625 -6.894531 5.628906 -7.015625 5.953125 -7.015625 C 6.609375 -7.015625 6.9375 -6.6875 6.9375 -6.03125 C 6.9375 -5.90625 6.890625 -5.585938 6.796875 -5.078125 C 6.722656 -4.679688 6.6875 -4.429688 6.6875 -4.328125 C 6.6875 -3.984375 6.8125 -3.8125 7.0625 -3.8125 C 7.34375 -3.8125 7.703125 -4.03125 8.140625 -4.46875 C 8.273438 -4.601562 8.410156 -4.671875 8.546875 -4.671875 C 8.679688 -4.671875 8.785156 -4.609375 8.859375 -4.484375 C 8.929688 -4.367188 8.96875 -4.21875 8.96875 -4.03125 C 8.96875 -3.65625 8.867188 -3.363281 8.671875 -3.15625 C 8.390625 -2.863281 8.054688 -2.613281 7.671875 -2.40625 C 7.296875 -2.207031 6.898438 -2.109375 6.484375 -2.109375 C 5.953125 -2.109375 5.546875 -2.242188 5.265625 -2.515625 C 4.992188 -2.785156 4.859375 -3.148438 4.859375 -3.609375 C 4.859375 -3.765625 4.875 -3.914062 4.90625 -4.0625 C 4.925781 -4.257812 4.9375 -4.394531 4.9375 -4.46875 C 4.9375 -4.625 4.878906 -4.703125 4.765625 -4.703125 C 4.617188 -4.703125 4.421875 -4.535156 4.171875 -4.203125 C 3.929688 -3.867188 3.6875 -3.425781 3.4375 -2.875 C 3.195312 -2.320312 3.003906 -1.738281 2.859375 -1.125 C 2.742188 -0.65625 2.613281 -0.335938 2.46875 -0.171875 C 2.320312 -0.00390625 2.097656 0.078125 1.796875 0.078125 Z M 1.796875 0.078125 "/></g></g></g><g fill="#1d6638" fill-opacity="1"><g transform="translate(26.680124, 18.894632)"><g><path d="M 2.578125 0.078125 C 1.953125 0.078125 1.453125 -0.144531 1.078125 -0.59375 C 0.710938 -1.050781 0.53125 -1.644531 0.53125 -2.375 C 0.53125 -3.175781 0.710938 -3.9375 1.078125 -4.65625 C 1.453125 -5.375 1.945312 -5.953125 2.5625 -6.390625 C 3.175781 -6.828125 3.832031 -7.046875 4.53125 -7.046875 C 4.75 -7.046875 4.894531 -7 4.96875 -6.90625 C 5.039062 -6.820312 5.101562 -6.671875 5.15625 -6.453125 C 5.375 -6.492188 5.597656 -6.515625 5.828125 -6.515625 C 6.316406 -6.515625 6.5625 -6.335938 6.5625 -5.984375 C 6.5625 -5.773438 6.484375 -5.273438 6.328125 -4.484375 C 6.097656 -3.328125 5.984375 -2.523438 5.984375 -2.078125 C 5.984375 -1.921875 6.019531 -1.796875 6.09375 -1.703125 C 6.175781 -1.617188 6.273438 -1.578125 6.390625 -1.578125 C 6.585938 -1.578125 6.820312 -1.695312 7.09375 -1.9375 C 7.363281 -2.1875 7.726562 -2.585938 8.1875 -3.140625 C 8.300781 -3.285156 8.4375 -3.359375 8.59375 -3.359375 C 8.71875 -3.359375 8.816406 -3.296875 8.890625 -3.171875 C 8.972656 -3.054688 9.015625 -2.890625 9.015625 -2.671875 C 9.015625 -2.273438 8.921875 -1.96875 8.734375 -1.75 C 8.316406 -1.238281 7.875 -0.804688 7.40625 -0.453125 C 6.945312 -0.0976562 6.503906 0.078125 6.078125 0.078125 C 5.742188 0.078125 5.4375 -0.0351562 5.15625 -0.265625 C 4.882812 -0.492188 4.679688 -0.800781 4.546875 -1.1875 C 4.023438 -0.34375 3.367188 0.078125 2.578125 0.078125 Z M 3.109375 -1.4375 C 3.335938 -1.4375 3.550781 -1.566406 3.75 -1.828125 C 3.945312 -2.097656 4.09375 -2.445312 4.1875 -2.875 L 4.734375 -5.640625 C 4.316406 -5.628906 3.929688 -5.46875 3.578125 -5.15625 C 3.222656 -4.851562 2.9375 -4.453125 2.71875 -3.953125 C 2.507812 -3.453125 2.40625 -2.921875 2.40625 -2.359375 C 2.40625 -2.046875 2.46875 -1.8125 2.59375 -1.65625 C 2.71875 -1.507812 2.890625 -1.4375 3.109375 -1.4375 Z M 3.109375 -1.4375 "/></g></g></g><g fill="#1d6638" fill-opacity="1"><g transform="translate(33.749408, 18.894632)"><g><path d="M 2.6875 -8 C 2.269531 -8 1.953125 -8.097656 1.734375 -8.296875 C 1.523438 -8.492188 1.421875 -8.769531 1.421875 -9.125 C 1.421875 -9.46875 1.554688 -9.757812 1.828125 -10 C 2.109375 -10.238281 2.457031 -10.359375 2.875 -10.359375 C 3.25 -10.359375 3.550781 -10.265625 3.78125 -10.078125 C 4.007812 -9.898438 4.125 -9.644531 4.125 -9.3125 C 4.125 -8.914062 3.992188 -8.597656 3.734375 -8.359375 C 3.472656 -8.117188 3.125 -8 2.6875 -8 Z M 2.578125 0.078125 C 1.921875 0.078125 1.441406 -0.148438 1.140625 -0.609375 C 0.847656 -1.078125 0.703125 -1.691406 0.703125 -2.453125 C 0.703125 -2.898438 0.757812 -3.476562 0.875 -4.1875 C 0.988281 -4.894531 1.140625 -5.554688 1.328125 -6.171875 C 1.410156 -6.492188 1.523438 -6.710938 1.671875 -6.828125 C 1.828125 -6.953125 2.070312 -7.015625 2.40625 -7.015625 C 2.914062 -7.015625 3.171875 -6.84375 3.171875 -6.5 C 3.171875 -6.25 3.078125 -5.664062 2.890625 -4.75 C 2.648438 -3.644531 2.53125 -2.898438 2.53125 -2.515625 C 2.53125 -2.210938 2.566406 -1.976562 2.640625 -1.8125 C 2.722656 -1.65625 2.859375 -1.578125 3.046875 -1.578125 C 3.234375 -1.578125 3.460938 -1.703125 3.734375 -1.953125 C 4.003906 -2.203125 4.363281 -2.597656 4.8125 -3.140625 C 4.9375 -3.285156 5.070312 -3.359375 5.21875 -3.359375 C 5.351562 -3.359375 5.457031 -3.296875 5.53125 -3.171875 C 5.601562 -3.054688 5.640625 -2.890625 5.640625 -2.671875 C 5.640625 -2.273438 5.546875 -1.96875 5.359375 -1.75 C 4.359375 -0.53125 3.429688 0.078125 2.578125 0.078125 Z M 2.578125 0.078125 "/></g></g></g><g fill="#1d6638" fill-opacity="1"><g transform="translate(37.449501, 18.894632)"><g><path d="M 8.421875 -3.328125 C 8.554688 -3.328125 8.660156 -3.265625 8.734375 -3.140625 C 8.804688 -3.015625 8.84375 -2.851562 8.84375 -2.65625 C 8.84375 -2.425781 8.804688 -2.242188 8.734375 -2.109375 C 8.671875 -1.984375 8.5625 -1.875 8.40625 -1.78125 C 7.539062 -1.195312 6.910156 -0.765625 6.515625 -0.484375 L 5.546875 0.171875 C 5.171875 2.242188 4.671875 3.875 4.046875 5.0625 C 3.429688 6.25 2.648438 6.84375 1.703125 6.84375 C 1.191406 6.84375 0.773438 6.679688 0.453125 6.359375 C 0.128906 6.046875 -0.03125 5.632812 -0.03125 5.125 C -0.03125 4.414062 0.25 3.648438 0.8125 2.828125 C 1.375 2.015625 2.425781 1.007812 3.96875 -0.1875 L 4.0625 -0.765625 C 3.894531 -0.492188 3.671875 -0.285156 3.390625 -0.140625 C 3.117188 0.00390625 2.847656 0.078125 2.578125 0.078125 C 1.953125 0.078125 1.453125 -0.144531 1.078125 -0.59375 C 0.710938 -1.050781 0.53125 -1.644531 0.53125 -2.375 C 0.53125 -3.175781 0.710938 -3.9375 1.078125 -4.65625 C 1.453125 -5.375 1.945312 -5.953125 2.5625 -6.390625 C 3.175781 -6.828125 3.832031 -7.046875 4.53125 -7.046875 C 4.75 -7.046875 4.894531 -7 4.96875 -6.90625 C 5.039062 -6.820312 5.101562 -6.671875 5.15625 -6.453125 C 5.351562 -6.492188 5.578125 -6.515625 5.828125 -6.515625 C 6.078125 -6.515625 6.253906 -6.476562 6.359375 -6.40625 C 6.460938 -6.332031 6.515625 -6.179688 6.515625 -5.953125 C 6.515625 -5.835938 6.507812 -5.742188 6.5 -5.671875 C 6.457031 -5.359375 6.332031 -4.570312 6.125 -3.3125 C 6.082031 -3.070312 6.035156 -2.804688 5.984375 -2.515625 C 5.941406 -2.234375 5.898438 -1.929688 5.859375 -1.609375 C 6.628906 -2.210938 7.367188 -2.742188 8.078125 -3.203125 C 8.210938 -3.285156 8.328125 -3.328125 8.421875 -3.328125 Z M 3.109375 -1.4375 C 3.335938 -1.4375 3.554688 -1.578125 3.765625 -1.859375 C 3.984375 -2.140625 4.140625 -2.539062 4.234375 -3.0625 L 4.703125 -5.640625 C 4.296875 -5.628906 3.914062 -5.46875 3.5625 -5.15625 C 3.21875 -4.851562 2.9375 -4.453125 2.71875 -3.953125 C 2.507812 -3.453125 2.40625 -2.921875 2.40625 -2.359375 C 2.40625 -2.046875 2.46875 -1.8125 2.59375 -1.65625 C 2.71875 -1.507812 2.890625 -1.4375 3.109375 -1.4375 Z M 1.859375 5.390625 C 2.109375 5.390625 2.390625 5.085938 2.703125 4.484375 C 3.023438 3.878906 3.332031 2.921875 3.625 1.609375 C 2.851562 2.273438 2.296875 2.875 1.953125 3.40625 C 1.609375 3.9375 1.4375 4.398438 1.4375 4.796875 C 1.4375 4.972656 1.46875 5.113281 1.53125 5.21875 C 1.601562 5.332031 1.710938 5.390625 1.859375 5.390625 Z M 1.859375 5.390625 "/></g></g></g><g fill="#1d6638" fill-opacity="1"><g transform="translate(44.654153, 18.894632)"><g><path d="M 2.421875 -8.953125 C 2.203125 -8.953125 2.023438 -9 1.890625 -9.09375 C 1.765625 -9.195312 1.703125 -9.359375 1.703125 -9.578125 C 1.703125 -9.671875 1.71875 -9.78125 1.75 -9.90625 C 1.851562 -10.363281 1.929688 -10.785156 1.984375 -11.171875 C 2.046875 -11.566406 2.078125 -12.003906 2.078125 -12.484375 C 2.078125 -12.984375 2.191406 -13.367188 2.421875 -13.640625 C 2.660156 -13.910156 2.96875 -14.046875 3.34375 -14.046875 C 3.695312 -14.046875 3.96875 -13.945312 4.15625 -13.75 C 4.34375 -13.5625 4.4375 -13.300781 4.4375 -12.96875 C 4.4375 -12.613281 4.332031 -12.144531 4.125 -11.5625 C 3.914062 -10.988281 3.660156 -10.425781 3.359375 -9.875 C 3.148438 -9.5 2.988281 -9.25 2.875 -9.125 C 2.757812 -9.007812 2.609375 -8.953125 2.421875 -8.953125 Z M 2.421875 -8.953125 "/></g></g></g><g fill="#1d6638" fill-opacity="1"><g transform="translate(48.203835, 18.894632)"><g><path d="M 3.515625 0.40625 C 2.992188 0.40625 2.59375 0.285156 2.3125 0.046875 C 2.039062 -0.191406 1.90625 -0.460938 1.90625 -0.765625 C 1.90625 -1.023438 2 -1.25 2.1875 -1.4375 C 2.382812 -1.632812 2.671875 -1.734375 3.046875 -1.734375 C 3.171875 -1.734375 3.320312 -1.71875 3.5 -1.6875 C 3.675781 -1.664062 3.804688 -1.648438 3.890625 -1.640625 C 3.878906 -1.898438 3.820312 -2.144531 3.71875 -2.375 C 3.613281 -2.601562 3.476562 -2.828125 3.3125 -3.046875 C 3.15625 -3.265625 3.007812 -3.453125 2.875 -3.609375 C 2.5625 -3.015625 2.25 -2.519531 1.9375 -2.125 C 1.632812 -1.738281 1.304688 -1.367188 0.953125 -1.015625 C 0.765625 -0.835938 0.570312 -0.75 0.375 -0.75 C 0.21875 -0.75 0.0859375 -0.804688 -0.015625 -0.921875 C -0.117188 -1.035156 -0.171875 -1.179688 -0.171875 -1.359375 C -0.171875 -1.554688 -0.0976562 -1.738281 0.046875 -1.90625 L 0.234375 -2.15625 C 0.785156 -2.832031 1.203125 -3.394531 1.484375 -3.84375 C 1.660156 -4.125 1.863281 -4.507812 2.09375 -5 C 2.320312 -5.488281 2.546875 -5.992188 2.765625 -6.515625 C 2.953125 -6.953125 3.347656 -7.171875 3.953125 -7.171875 C 4.234375 -7.171875 4.425781 -7.144531 4.53125 -7.09375 C 4.644531 -7.050781 4.703125 -6.972656 4.703125 -6.859375 C 4.703125 -6.796875 4.679688 -6.695312 4.640625 -6.5625 C 4.609375 -6.4375 4.554688 -6.3125 4.484375 -6.1875 C 4.304688 -5.820312 4.21875 -5.515625 4.21875 -5.265625 C 4.21875 -5.117188 4.269531 -4.953125 4.375 -4.765625 C 4.476562 -4.585938 4.640625 -4.363281 4.859375 -4.09375 C 5.179688 -3.664062 5.425781 -3.304688 5.59375 -3.015625 C 5.757812 -2.722656 5.84375 -2.398438 5.84375 -2.046875 C 5.84375 -1.941406 5.832031 -1.800781 5.8125 -1.625 C 6.300781 -1.8125 6.875 -2.316406 7.53125 -3.140625 C 7.65625 -3.285156 7.789062 -3.359375 7.9375 -3.359375 C 8.070312 -3.359375 8.175781 -3.296875 8.25 -3.171875 C 8.320312 -3.054688 8.359375 -2.890625 8.359375 -2.671875 C 8.359375 -2.296875 8.265625 -1.988281 8.078125 -1.75 C 7.578125 -1.125 7.097656 -0.695312 6.640625 -0.46875 C 6.179688 -0.25 5.617188 -0.128906 4.953125 -0.109375 C 4.546875 0.234375 4.066406 0.40625 3.515625 0.40625 Z M 3.515625 0.40625 "/></g></g></g><g fill="#1d6638" fill-opacity="1"><g transform="translate(54.626352, 18.894632)"><g/></g></g><g fill="#1d6638" fill-opacity="1"><g transform="translate(58.612224, 18.894632)"><g><path d="M 12.390625 -8.96875 C 12.390625 -8.113281 12.164062 -7.328125 11.71875 -6.609375 C 11.28125 -5.898438 10.640625 -5.320312 9.796875 -4.875 C 8.953125 -4.425781 7.945312 -4.160156 6.78125 -4.078125 L 6.140625 -0.453125 C 5.890625 0.941406 5.207031 1.640625 4.09375 1.640625 C 3.476562 1.640625 2.910156 1.457031 2.390625 1.09375 C 1.878906 0.738281 1.46875 0.191406 1.15625 -0.546875 C 0.84375 -1.296875 0.6875 -2.210938 0.6875 -3.296875 C 0.6875 -5.328125 1.015625 -7.050781 1.671875 -8.46875 C 2.328125 -9.894531 3.207031 -10.960938 4.3125 -11.671875 C 5.425781 -12.378906 6.648438 -12.734375 7.984375 -12.734375 C 8.929688 -12.734375 9.734375 -12.566406 10.390625 -12.234375 C 11.046875 -11.898438 11.539062 -11.445312 11.875 -10.875 C 12.21875 -10.3125 12.390625 -9.675781 12.390625 -8.96875 Z M 7.0625 -5.625 C 9.113281 -5.882812 10.140625 -6.953125 10.140625 -8.828125 C 10.140625 -9.492188 9.921875 -10.035156 9.484375 -10.453125 C 9.046875 -10.867188 8.375 -11.078125 7.46875 -11.078125 C 6.425781 -11.078125 5.519531 -10.75 4.75 -10.09375 C 3.988281 -9.445312 3.398438 -8.539062 2.984375 -7.375 C 2.566406 -6.21875 2.359375 -4.898438 2.359375 -3.421875 C 2.359375 -2.796875 2.421875 -2.238281 2.546875 -1.75 C 2.671875 -1.269531 2.832031 -0.894531 3.03125 -0.625 C 3.226562 -0.363281 3.414062 -0.234375 3.59375 -0.234375 C 3.84375 -0.234375 4.035156 -0.582031 4.171875 -1.28125 L 4.671875 -4.125 C 4.273438 -4.1875 4.101562 -4.210938 4.15625 -4.203125 C 3.851562 -4.242188 3.65625 -4.332031 3.5625 -4.46875 C 3.476562 -4.601562 3.4375 -4.78125 3.4375 -5 C 3.4375 -5.21875 3.5 -5.390625 3.625 -5.515625 C 3.75 -5.648438 3.921875 -5.71875 4.140625 -5.71875 C 4.234375 -5.71875 4.304688 -5.710938 4.359375 -5.703125 C 4.597656 -5.660156 4.785156 -5.632812 4.921875 -5.625 C 5.046875 -6.40625 5.234375 -7.453125 5.484375 -8.765625 C 5.535156 -9.109375 5.671875 -9.351562 5.890625 -9.5 C 6.109375 -9.644531 6.363281 -9.71875 6.65625 -9.71875 C 6.976562 -9.71875 7.210938 -9.65625 7.359375 -9.53125 C 7.503906 -9.40625 7.578125 -9.207031 7.578125 -8.9375 C 7.578125 -8.78125 7.566406 -8.648438 7.546875 -8.546875 Z M 7.0625 -5.625 "/></g></g></g><g fill="#1d6638" fill-opacity="1"><g transform="translate(70.720251, 18.894632)"><g><path d="M 6.421875 -3.359375 C 6.554688 -3.359375 6.660156 -3.296875 6.734375 -3.171875 C 6.804688 -3.054688 6.84375 -2.890625 6.84375 -2.671875 C 6.84375 -2.273438 6.75 -1.96875 6.5625 -1.75 C 6.125 -1.21875 5.648438 -0.78125 5.140625 -0.4375 C 4.640625 -0.09375 4.070312 0.078125 3.4375 0.078125 C 2.550781 0.078125 1.894531 -0.320312 1.46875 -1.125 C 1.039062 -1.925781 0.828125 -2.96875 0.828125 -4.25 C 0.828125 -5.46875 0.984375 -6.859375 1.296875 -8.421875 C 1.617188 -9.992188 2.085938 -11.335938 2.703125 -12.453125 C 3.316406 -13.578125 4.050781 -14.140625 4.90625 -14.140625 C 5.382812 -14.140625 5.757812 -13.914062 6.03125 -13.46875 C 6.3125 -13.03125 6.453125 -12.394531 6.453125 -11.5625 C 6.453125 -10.363281 6.117188 -8.976562 5.453125 -7.40625 C 4.796875 -5.832031 3.898438 -4.269531 2.765625 -2.71875 C 2.835938 -2.3125 2.953125 -2.019531 3.109375 -1.84375 C 3.273438 -1.664062 3.488281 -1.578125 3.75 -1.578125 C 4.15625 -1.578125 4.515625 -1.691406 4.828125 -1.921875 C 5.140625 -2.160156 5.535156 -2.566406 6.015625 -3.140625 C 6.140625 -3.285156 6.273438 -3.359375 6.421875 -3.359375 Z M 4.578125 -12.65625 C 4.347656 -12.65625 4.085938 -12.238281 3.796875 -11.40625 C 3.503906 -10.570312 3.242188 -9.535156 3.015625 -8.296875 C 2.796875 -7.066406 2.675781 -5.882812 2.65625 -4.75 C 3.375 -5.925781 3.941406 -7.101562 4.359375 -8.28125 C 4.785156 -9.457031 5 -10.535156 5 -11.515625 C 5 -12.273438 4.859375 -12.65625 4.578125 -12.65625 Z M 4.578125 -12.65625 "/></g></g></g><g fill="#1d6638" fill-opacity="1"><g transform="translate(75.623627, 18.894632)"><g><path d="M 2.578125 0.078125 C 1.953125 0.078125 1.453125 -0.144531 1.078125 -0.59375 C 0.710938 -1.050781 0.53125 -1.644531 0.53125 -2.375 C 0.53125 -3.175781 0.710938 -3.9375 1.078125 -4.65625 C 1.453125 -5.375 1.945312 -5.953125 2.5625 -6.390625 C 3.175781 -6.828125 3.832031 -7.046875 4.53125 -7.046875 C 4.75 -7.046875 4.894531 -7 4.96875 -6.90625 C 5.039062 -6.820312 5.101562 -6.671875 5.15625 -6.453125 C 5.375 -6.492188 5.597656 -6.515625 5.828125 -6.515625 C 6.316406 -6.515625 6.5625 -6.335938 6.5625 -5.984375 C 6.5625 -5.773438 6.484375 -5.273438 6.328125 -4.484375 C 6.097656 -3.328125 5.984375 -2.523438 5.984375 -2.078125 C 5.984375 -1.921875 6.019531 -1.796875 6.09375 -1.703125 C 6.175781 -1.617188 6.273438 -1.578125 6.390625 -1.578125 C 6.585938 -1.578125 6.820312 -1.695312 7.09375 -1.9375 C 7.363281 -2.1875 7.726562 -2.585938 8.1875 -3.140625 C 8.300781 -3.285156 8.4375 -3.359375 8.59375 -3.359375 C 8.71875 -3.359375 8.816406 -3.296875 8.890625 -3.171875 C 8.972656 -3.054688 9.015625 -2.890625 9.015625 -2.671875 C 9.015625 -2.273438 8.921875 -1.96875 8.734375 -1.75 C 8.316406 -1.238281 7.875 -0.804688 7.40625 -0.453125 C 6.945312 -0.0976562 6.503906 0.078125 6.078125 0.078125 C 5.742188 0.078125 5.4375 -0.0351562 5.15625 -0.265625 C 4.882812 -0.492188 4.679688 -0.800781 4.546875 -1.1875 C 4.023438 -0.34375 3.367188 0.078125 2.578125 0.078125 Z M 3.109375 -1.4375 C 3.335938 -1.4375 3.550781 -1.566406 3.75 -1.828125 C 3.945312 -2.097656 4.09375 -2.445312 4.1875 -2.875 L 4.734375 -5.640625 C 4.316406 -5.628906 3.929688 -5.46875 3.578125 -5.15625 C 3.222656 -4.851562 2.9375 -4.453125 2.71875 -3.953125 C 2.507812 -3.453125 2.40625 -2.921875 2.40625 -2.359375 C 2.40625 -2.046875 2.46875 -1.8125 2.59375 -1.65625 C 2.71875 -1.507812 2.890625 -1.4375 3.109375 -1.4375 Z M 3.109375 -1.4375 "/></g></g></g><g fill="#1d6638" fill-opacity="1"><g transform="translate(82.692914, 18.894632)"><g><path d="M 1.796875 0.078125 C 1.410156 0.078125 1.140625 -0.117188 0.984375 -0.515625 C 0.828125 -0.921875 0.75 -1.566406 0.75 -2.453125 C 0.75 -3.753906 0.9375 -4.992188 1.3125 -6.171875 C 1.394531 -6.460938 1.539062 -6.675781 1.75 -6.8125 C 1.957031 -6.945312 2.25 -7.015625 2.625 -7.015625 C 2.820312 -7.015625 2.957031 -6.988281 3.03125 -6.9375 C 3.113281 -6.882812 3.15625 -6.789062 3.15625 -6.65625 C 3.15625 -6.488281 3.082031 -6.125 2.9375 -5.5625 C 2.832031 -5.164062 2.75 -4.816406 2.6875 -4.515625 C 2.632812 -4.210938 2.585938 -3.84375 2.546875 -3.40625 C 2.878906 -4.257812 3.25 -4.957031 3.65625 -5.5 C 4.0625 -6.039062 4.460938 -6.425781 4.859375 -6.65625 C 5.265625 -6.894531 5.628906 -7.015625 5.953125 -7.015625 C 6.609375 -7.015625 6.9375 -6.6875 6.9375 -6.03125 C 6.9375 -5.644531 6.828125 -4.9375 6.609375 -3.90625 C 6.410156 -3.039062 6.3125 -2.46875 6.3125 -2.1875 C 6.3125 -1.78125 6.457031 -1.578125 6.75 -1.578125 C 6.957031 -1.578125 7.195312 -1.695312 7.46875 -1.9375 C 7.75 -2.1875 8.117188 -2.585938 8.578125 -3.140625 C 8.691406 -3.285156 8.828125 -3.359375 8.984375 -3.359375 C 9.109375 -3.359375 9.207031 -3.296875 9.28125 -3.171875 C 9.363281 -3.054688 9.40625 -2.890625 9.40625 -2.671875 C 9.40625 -2.273438 9.3125 -1.96875 9.125 -1.75 C 8.6875 -1.21875 8.21875 -0.78125 7.71875 -0.4375 C 7.226562 -0.09375 6.664062 0.078125 6.03125 0.078125 C 5.519531 0.078125 5.132812 -0.0664062 4.875 -0.359375 C 4.613281 -0.660156 4.484375 -1.09375 4.484375 -1.65625 C 4.484375 -1.9375 4.550781 -2.4375 4.6875 -3.15625 C 4.820312 -3.789062 4.890625 -4.226562 4.890625 -4.46875 C 4.890625 -4.625 4.832031 -4.703125 4.71875 -4.703125 C 4.59375 -4.703125 4.410156 -4.535156 4.171875 -4.203125 C 3.941406 -3.867188 3.703125 -3.425781 3.453125 -2.875 C 3.203125 -2.320312 3.003906 -1.738281 2.859375 -1.125 C 2.742188 -0.65625 2.613281 -0.335938 2.46875 -0.171875 C 2.320312 -0.00390625 2.097656 0.078125 1.796875 0.078125 Z M 1.796875 0.078125 "/></g></g></g><g fill="#1d6638" fill-opacity="1"><g transform="translate(90.153265, 18.894632)"><g><path d="M 7.4375 -3.359375 C 7.5625 -3.359375 7.660156 -3.296875 7.734375 -3.171875 C 7.816406 -3.054688 7.859375 -2.890625 7.859375 -2.671875 C 7.859375 -2.273438 7.757812 -1.96875 7.5625 -1.75 C 7.132812 -1.21875 6.664062 -0.78125 6.15625 -0.4375 C 5.644531 -0.09375 5.054688 0.078125 4.390625 0.078125 C 2.347656 0.078125 1.328125 -1.363281 1.328125 -4.25 C 1.328125 -4.6875 1.34375 -5.128906 1.375 -5.578125 L 0.78125 -5.578125 C 0.476562 -5.578125 0.273438 -5.628906 0.171875 -5.734375 C 0.0664062 -5.847656 0.015625 -6.03125 0.015625 -6.28125 C 0.015625 -6.832031 0.238281 -7.109375 0.6875 -7.109375 L 1.546875 -7.109375 C 1.722656 -8.210938 1.984375 -9.222656 2.328125 -10.140625 C 2.679688 -11.054688 3.101562 -11.785156 3.59375 -12.328125 C 4.09375 -12.867188 4.628906 -13.140625 5.203125 -13.140625 C 5.628906 -13.140625 5.960938 -12.953125 6.203125 -12.578125 C 6.441406 -12.203125 6.5625 -11.738281 6.5625 -11.1875 C 6.5625 -9.625 5.910156 -8.265625 4.609375 -7.109375 L 6.296875 -7.109375 C 6.453125 -7.109375 6.5625 -7.070312 6.625 -7 C 6.695312 -6.9375 6.734375 -6.8125 6.734375 -6.625 C 6.734375 -5.925781 6.171875 -5.578125 5.046875 -5.578125 L 3.203125 -5.578125 C 3.179688 -5.078125 3.171875 -4.6875 3.171875 -4.40625 C 3.171875 -3.363281 3.289062 -2.628906 3.53125 -2.203125 C 3.78125 -1.785156 4.171875 -1.578125 4.703125 -1.578125 C 5.140625 -1.578125 5.519531 -1.707031 5.84375 -1.96875 C 6.175781 -2.226562 6.570312 -2.617188 7.03125 -3.140625 C 7.144531 -3.285156 7.28125 -3.359375 7.4375 -3.359375 Z M 4.796875 -11.6875 C 4.648438 -11.6875 4.484375 -11.5 4.296875 -11.125 C 4.109375 -10.75 3.929688 -10.226562 3.765625 -9.5625 C 3.597656 -8.894531 3.460938 -8.15625 3.359375 -7.34375 C 3.953125 -7.851562 4.394531 -8.425781 4.6875 -9.0625 C 4.976562 -9.695312 5.125 -10.273438 5.125 -10.796875 C 5.125 -11.390625 5.015625 -11.6875 4.796875 -11.6875 Z M 4.796875 -11.6875 "/></g></g></g><g fill="#1d6638" fill-opacity="1"><g transform="translate(96.064385, 18.894632)"><g><path d="M 3.515625 0.40625 C 2.992188 0.40625 2.59375 0.285156 2.3125 0.046875 C 2.039062 -0.191406 1.90625 -0.460938 1.90625 -0.765625 C 1.90625 -1.023438 2 -1.25 2.1875 -1.4375 C 2.382812 -1.632812 2.671875 -1.734375 3.046875 -1.734375 C 3.171875 -1.734375 3.320312 -1.71875 3.5 -1.6875 C 3.675781 -1.664062 3.804688 -1.648438 3.890625 -1.640625 C 3.878906 -1.898438 3.820312 -2.144531 3.71875 -2.375 C 3.613281 -2.601562 3.476562 -2.828125 3.3125 -3.046875 C 3.15625 -3.265625 3.007812 -3.453125 2.875 -3.609375 C 2.5625 -3.015625 2.25 -2.519531 1.9375 -2.125 C 1.632812 -1.738281 1.304688 -1.367188 0.953125 -1.015625 C 0.765625 -0.835938 0.570312 -0.75 0.375 -0.75 C 0.21875 -0.75 0.0859375 -0.804688 -0.015625 -0.921875 C -0.117188 -1.035156 -0.171875 -1.179688 -0.171875 -1.359375 C -0.171875 -1.554688 -0.0976562 -1.738281 0.046875 -1.90625 L 0.234375 -2.15625 C 0.785156 -2.832031 1.203125 -3.394531 1.484375 -3.84375 C 1.660156 -4.125 1.863281 -4.507812 2.09375 -5 C 2.320312 -5.488281 2.546875 -5.992188 2.765625 -6.515625 C 2.953125 -6.953125 3.347656 -7.171875 3.953125 -7.171875 C 4.234375 -7.171875 4.425781 -7.144531 4.53125 -7.09375 C 4.644531 -7.050781 4.703125 -6.972656 4.703125 -6.859375 C 4.703125 -6.796875 4.679688 -6.695312 4.640625 -6.5625 C 4.609375 -6.4375 4.554688 -6.3125 4.484375 -6.1875 C 4.304688 -5.820312 4.21875 -5.515625 4.21875 -5.265625 C 4.21875 -5.117188 4.269531 -4.953125 4.375 -4.765625 C 4.476562 -4.585938 4.640625 -4.363281 4.859375 -4.09375 C 5.179688 -3.664062 5.425781 -3.304688 5.59375 -3.015625 C 5.757812 -2.722656 5.84375 -2.398438 5.84375 -2.046875 C 5.84375 -1.941406 5.832031 -1.800781 5.8125 -1.625 C 6.300781 -1.8125 6.875 -2.316406 7.53125 -3.140625 C 7.65625 -3.285156 7.789062 -3.359375 7.9375 -3.359375 C 8.070312 -3.359375 8.175781 -3.296875 8.25 -3.171875 C 8.320312 -3.054688 8.359375 -2.890625 8.359375 -2.671875 C 8.359375 -2.296875 8.265625 -1.988281 8.078125 -1.75 C 7.578125 -1.125 7.097656 -0.695312 6.640625 -0.46875 C 6.179688 -0.25 5.617188 -0.128906 4.953125 -0.109375 C 4.546875 0.234375 4.066406 0.40625 3.515625 0.40625 Z M 3.515625 0.40625 "/></g></g></g><g clip-path="url(#111efe4f3c)"><path fill="#1d6638" d="M 71.710938 32.863281 C 71.515625 33.039062 71.308594 32.929688 71.324219 32.679688 C 71.339844 32.414062 71.621094 32.136719 71.789062 31.949219 C 71.976562 31.742188 72.1875 31.550781 72.390625 31.367188 C 72.460938 31.300781 72.53125 31.222656 72.597656 31.144531 C 72.535156 31.3125 72.492188 31.5 72.4375 31.636719 C 72.269531 32.058594 72.070312 32.535156 71.710938 32.863281 Z M 72.449219 30.441406 C 72.253906 30.253906 72.066406 30.066406 71.898438 29.859375 C 71.726562 29.644531 71.578125 29.398438 71.515625 29.125 C 71.480469 28.957031 71.558594 28.765625 71.679688 28.773438 C 71.636719 28.800781 71.597656 28.832031 71.582031 28.863281 C 71.484375 29.019531 71.734375 28.976562 71.890625 28.949219 C 72.035156 29.140625 72.148438 29.394531 72.246094 29.640625 C 72.234375 29.683594 72.246094 29.714844 72.28125 29.726562 C 72.324219 29.835938 72.363281 29.945312 72.402344 30.042969 C 72.460938 30.1875 72.507812 30.398438 72.582031 30.582031 C 72.535156 30.53125 72.492188 30.480469 72.449219 30.441406 Z M 70.171875 32.179688 C 69.9375 32.375 69.503906 32.671875 69.136719 32.632812 C 68.953125 32.609375 69.355469 32.226562 69.382812 32.199219 C 69.5625 32.042969 69.765625 31.90625 69.957031 31.773438 C 70.285156 31.539062 70.628906 31.351562 70.964844 31.15625 C 70.742188 31.527344 70.535156 31.882812 70.171875 32.179688 Z M 70.273438 30.007812 C 70.242188 29.964844 70.082031 29.683594 69.976562 29.410156 C 69.867188 29.136719 69.8125 28.878906 69.910156 28.882812 C 70.101562 28.894531 70.316406 29.335938 70.441406 29.503906 C 70.703125 29.886719 70.828125 30.316406 70.996094 30.753906 C 70.722656 30.527344 70.472656 30.292969 70.273438 30.007812 Z M 68.058594 31.832031 C 67.898438 31.941406 67.644531 32.023438 67.359375 32.023438 C 67.074219 32.027344 66.765625 31.945312 66.539062 31.777344 C 66.386719 31.65625 66.523438 31.59375 66.699219 31.550781 C 66.875 31.503906 67.085938 31.480469 67.121094 31.472656 C 67.375 31.429688 67.621094 31.394531 67.855469 31.335938 C 68.140625 31.269531 68.492188 31.144531 68.703125 30.9375 C 68.625 31.296875 68.386719 31.609375 68.058594 31.832031 Z M 68.378906 28.546875 C 68.410156 28.390625 68.484375 28.417969 68.5625 28.484375 C 68.636719 28.554688 68.730469 28.664062 68.738281 28.683594 C 68.832031 28.820312 68.894531 28.972656 68.9375 29.175781 C 69.007812 29.53125 69.023438 29.972656 68.878906 30.34375 C 68.835938 30.074219 68.679688 29.808594 68.597656 29.59375 C 68.453125 29.253906 68.308594 28.910156 68.378906 28.546875 Z M 66.925781 29.855469 C 66.65625 29.753906 66.386719 29.613281 66.234375 29.433594 C 66.074219 29.261719 66.03125 29.0625 66.160156 28.894531 C 66.367188 28.640625 66.628906 29.097656 67.046875 29.519531 C 67.222656 29.707031 67.433594 29.890625 67.625 30.042969 C 67.410156 29.992188 67.167969 29.941406 66.925781 29.855469 Z M 44.554688 32.105469 C 44.390625 32.351562 44.152344 32.28125 44.105469 32 C 44.054688 31.703125 44.285156 31.328125 44.421875 31.082031 C 44.578125 30.808594 44.761719 30.550781 44.945312 30.300781 C 45.007812 30.214844 45.066406 30.117188 45.125 30.015625 C 45.09375 30.214844 45.089844 30.429688 45.058594 30.59375 C 44.96875 31.09375 44.855469 31.660156 44.554688 32.105469 Z M 44.90625 29.339844 C 44.917969 29.335938 44.929688 29.335938 44.941406 29.328125 C 44.953125 29.351562 44.96875 29.371094 44.980469 29.394531 C 44.957031 29.375 44.929688 29.359375 44.90625 29.339844 Z M 44.054688 28.75 C 43.933594 28.648438 43.8125 28.542969 43.703125 28.425781 C 43.816406 28.441406 43.933594 28.441406 43.976562 28.441406 C 44.117188 28.433594 44.242188 28.410156 44.359375 28.371094 C 44.46875 28.53125 44.566406 28.691406 44.660156 28.835938 C 44.699219 28.890625 44.734375 28.957031 44.773438 29.027344 C 44.703125 29.058594 44.644531 29.097656 44.617188 29.148438 C 44.425781 29.019531 44.234375 28.890625 44.054688 28.75 Z M 43.691406 27.648438 C 43.871094 27.757812 44.03125 27.929688 44.179688 28.121094 C 44.003906 28.121094 43.683594 28.125 43.53125 28.195312 C 43.496094 28.144531 43.464844 28.09375 43.441406 28.039062 C 43.332031 27.8125 43.433594 27.488281 43.691406 27.648438 Z M 41.835938 32.53125 C 41.648438 32.566406 41.933594 32.027344 41.957031 31.988281 C 42.089844 31.765625 42.261719 31.5625 42.425781 31.363281 C 42.703125 31.011719 43.015625 30.707031 43.335938 30.410156 C 43.1875 30.871094 43.058594 31.316406 42.761719 31.746094 C 42.574219 32.035156 42.207031 32.457031 41.835938 32.53125 Z M 41.734375 28.78125 C 41.523438 28.515625 41.359375 28.257812 41.480469 28.230469 C 41.722656 28.171875 42.113281 28.601562 42.304688 28.75 C 42.71875 29.082031 42.96875 29.523438 43.265625 29.960938 C 42.90625 29.78125 42.5625 29.59375 42.257812 29.347656 C 42.214844 29.308594 41.945312 29.042969 41.734375 28.78125 Z M 40.539062 32.050781 C 40.425781 32.226562 40.21875 32.414062 39.972656 32.546875 C 39.847656 32.609375 39.71875 32.667969 39.585938 32.691406 C 39.449219 32.714844 39.316406 32.714844 39.191406 32.6875 C 38.855469 32.609375 39.503906 32.140625 39.554688 32.09375 C 39.757812 31.9375 39.964844 31.769531 40.164062 31.609375 C 40.40625 31.414062 40.714844 31.15625 40.855469 30.859375 C 40.902344 31.273438 40.769531 31.6875 40.539062 32.050781 Z M 40.207031 29.472656 C 40.050781 29.328125 39.878906 29.1875 39.722656 29.039062 C 39.570312 28.875 39.4375 28.699219 39.347656 28.496094 C 39.195312 28.136719 39.855469 28.464844 39.917969 28.46875 C 40.117188 28.570312 40.277344 28.695312 40.417969 28.894531 C 40.660156 29.242188 40.839844 29.714844 40.824219 30.160156 C 40.679688 29.890625 40.402344 29.660156 40.207031 29.472656 Z M 38.613281 30.597656 C 38.304688 30.695312 38.003906 30.71875 37.765625 30.691406 C 37.523438 30.660156 37.355469 30.554688 37.316406 30.320312 C 37.269531 29.953125 37.859375 30.058594 38.519531 30.210938 C 38.808594 30.261719 39.113281 30.328125 39.378906 30.390625 C 39.144531 30.445312 38.878906 30.527344 38.613281 30.597656 Z M 74.9375 30.773438 C 74.8125 30.765625 74.6875 30.761719 74.5625 30.757812 C 74.480469 30.433594 74.351562 30.109375 74.195312 29.800781 C 74.191406 29.796875 74.191406 29.792969 74.1875 29.789062 C 74.167969 29.636719 74.171875 29.480469 74.167969 29.308594 C 74.164062 29.285156 74.132812 29.273438 74.121094 29.296875 C 74.085938 29.390625 74.070312 29.492188 74.074219 29.59375 C 73.960938 29.398438 73.839844 29.210938 73.714844 29.027344 C 73.714844 29.027344 73.710938 29.023438 73.710938 29.019531 C 73.707031 29.019531 73.707031 29.015625 73.707031 29.015625 C 73.652344 28.941406 73.601562 28.863281 73.546875 28.792969 C 73.535156 28.769531 73.515625 28.75 73.5 28.730469 C 73.410156 28.558594 73.34375 28.386719 73.296875 28.175781 C 73.289062 28.15625 73.253906 28.152344 73.25 28.175781 C 73.234375 28.269531 73.25 28.371094 73.28125 28.46875 C 72.945312 28.09375 72.554688 27.769531 72.132812 27.507812 C 72.085938 27.425781 72.046875 27.335938 72.011719 27.242188 C 72.003906 27.222656 71.972656 27.226562 71.972656 27.246094 C 71.972656 27.3125 71.996094 27.382812 72.027344 27.449219 C 71.894531 27.367188 71.753906 27.292969 71.613281 27.226562 C 71.558594 27.199219 71.519531 27.285156 71.574219 27.3125 C 71.722656 27.382812 71.867188 27.464844 72.007812 27.554688 C 71.851562 27.535156 71.710938 27.570312 71.625 27.714844 C 71.613281 27.730469 71.636719 27.75 71.644531 27.734375 C 71.769531 27.589844 71.917969 27.582031 72.066406 27.625 C 72.121094 27.648438 72.175781 27.675781 72.234375 27.707031 C 72.644531 28.003906 73.003906 28.371094 73.320312 28.769531 C 73.15625 28.695312 72.984375 28.65625 72.808594 28.664062 C 72.785156 28.667969 72.78125 28.699219 72.804688 28.699219 C 73.03125 28.703125 73.226562 28.785156 73.417969 28.890625 C 73.597656 29.132812 73.753906 29.402344 73.898438 29.679688 C 73.753906 29.597656 73.597656 29.535156 73.429688 29.519531 C 73.410156 29.519531 73.402344 29.546875 73.421875 29.546875 C 73.609375 29.566406 73.769531 29.640625 73.929688 29.734375 C 73.957031 29.789062 73.984375 29.839844 74.011719 29.890625 C 74.15625 30.183594 74.292969 30.476562 74.441406 30.757812 C 73.929688 30.753906 73.40625 30.78125 72.890625 30.800781 C 72.890625 30.675781 72.835938 30.554688 72.792969 30.4375 C 72.699219 30.199219 72.601562 29.960938 72.503906 29.726562 C 72.5625 29.71875 72.628906 29.703125 72.699219 29.6875 C 72.984375 29.621094 73.300781 29.535156 73.355469 29.519531 C 73.269531 29.484375 73.007812 29.421875 72.773438 29.417969 C 72.632812 29.417969 72.5 29.4375 72.402344 29.484375 C 72.332031 29.316406 72.238281 29.089844 72.121094 28.898438 C 72.328125 28.84375 72.523438 28.765625 72.734375 28.65625 C 72.613281 28.597656 72.441406 28.609375 72.304688 28.597656 C 72.242188 28.597656 72.085938 28.621094 71.941406 28.664062 C 71.851562 28.578125 71.753906 28.523438 71.648438 28.53125 C 71.195312 28.554688 71.324219 29.261719 71.464844 29.539062 C 71.625 29.863281 71.878906 30.140625 72.136719 30.390625 C 72.308594 30.558594 72.5 30.671875 72.691406 30.792969 C 72.691406 30.796875 72.695312 30.804688 72.699219 30.808594 C 72.292969 30.824219 71.890625 30.832031 71.5 30.8125 C 71.402344 30.808594 71.304688 30.800781 71.207031 30.792969 C 71.117188 30.238281 70.816406 29.691406 70.519531 29.269531 C 70.457031 29.183594 70.335938 28.992188 70.207031 28.847656 C 70.082031 28.703125 69.945312 28.605469 69.824219 28.703125 C 69.511719 28.9375 69.769531 29.515625 69.914062 29.761719 C 70.085938 30.089844 70.371094 30.5 70.722656 30.753906 C 70.171875 30.699219 69.625 30.609375 69.09375 30.472656 C 69.164062 30.34375 69.199219 30.183594 69.207031 30.015625 C 69.226562 29.726562 69.1875 29.414062 69.15625 29.199219 C 69.082031 28.753906 68.871094 28.390625 68.667969 28.230469 C 68.589844 28.175781 68.46875 28.199219 68.347656 28.324219 C 68.210938 28.46875 68.183594 28.613281 68.175781 28.785156 C 68.148438 29.328125 68.441406 29.777344 68.644531 30.324219 C 68.476562 30.265625 68.304688 30.210938 68.15625 30.203125 C 67.890625 29.867188 67.449219 29.59375 67.203125 29.308594 C 67.078125 29.183594 66.941406 28.988281 66.777344 28.84375 C 66.761719 28.832031 66.746094 28.820312 66.730469 28.804688 C 66.664062 28.726562 66.597656 28.648438 66.527344 28.570312 C 66.476562 28.425781 66.460938 28.273438 66.433594 28.113281 C 66.433594 28.09375 66.398438 28.085938 66.390625 28.109375 C 66.363281 28.199219 66.363281 28.296875 66.382812 28.390625 C 66.175781 28.148438 65.976562 27.902344 65.804688 27.644531 C 65.789062 27.625 65.773438 27.601562 65.761719 27.578125 C 65.683594 27.402344 65.640625 27.222656 65.648438 27.015625 C 65.648438 26.992188 65.613281 26.984375 65.605469 27.003906 C 65.566406 27.089844 65.558594 27.1875 65.570312 27.285156 C 65.425781 27.050781 65.28125 26.8125 65.15625 26.566406 C 65.054688 26.367188 64.964844 26.164062 64.890625 25.953125 C 64.902344 25.859375 64.933594 25.769531 64.976562 25.683594 C 64.984375 25.664062 64.960938 25.644531 64.945312 25.660156 C 64.894531 25.703125 64.867188 25.769531 64.847656 25.835938 C 64.800781 25.6875 64.753906 25.539062 64.71875 25.386719 C 64.710938 25.328125 64.617188 25.34375 64.625 25.40625 C 64.664062 25.578125 64.714844 25.75 64.769531 25.917969 C 64.660156 25.789062 64.527344 25.707031 64.359375 25.738281 C 64.339844 25.742188 64.34375 25.773438 64.363281 25.773438 C 64.558594 25.769531 64.667969 25.875 64.761719 26.011719 C 64.800781 26.066406 64.832031 26.132812 64.863281 26.195312 C 64.867188 26.203125 64.867188 26.214844 64.871094 26.226562 C 64.871094 26.230469 64.875 26.230469 64.878906 26.230469 C 64.925781 26.363281 64.980469 26.496094 65.035156 26.625 C 65.195312 26.964844 65.378906 27.292969 65.582031 27.605469 C 65.570312 27.597656 65.554688 27.589844 65.542969 27.582031 C 65.390625 27.5 65.230469 27.433594 65.0625 27.390625 C 65.039062 27.382812 65.03125 27.417969 65.054688 27.425781 C 65.28125 27.5 65.472656 27.617188 65.660156 27.734375 C 65.664062 27.738281 65.664062 27.738281 65.664062 27.738281 C 65.839844 28 66.027344 28.265625 66.230469 28.523438 C 66.066406 28.460938 65.898438 28.417969 65.714844 28.40625 C 65.695312 28.40625 65.691406 28.433594 65.710938 28.4375 C 65.910156 28.449219 66.09375 28.507812 66.269531 28.578125 C 66.277344 28.585938 66.285156 28.597656 66.292969 28.605469 C 66.261719 28.605469 66.230469 28.597656 66.195312 28.605469 C 65.933594 28.636719 65.847656 28.8125 65.875 29.050781 C 65.886719 29.167969 65.9375 29.285156 65.996094 29.398438 C 66.0625 29.507812 66.140625 29.601562 66.214844 29.671875 C 66.277344 29.722656 66.339844 29.769531 66.40625 29.816406 C 65.835938 29.714844 65.257812 29.660156 64.675781 29.617188 C 64.675781 29.496094 64.636719 29.367188 64.613281 29.261719 C 64.53125 28.886719 64.441406 28.515625 64.339844 28.148438 C 64.28125 27.933594 64.199219 27.582031 64.070312 27.28125 C 64.09375 27.289062 64.117188 27.296875 64.128906 27.304688 C 64.433594 27.417969 64.6875 27.421875 64.984375 27.359375 C 64.863281 27.257812 64.695312 27.191406 64.550781 27.105469 C 64.425781 27.0625 64.03125 26.863281 63.808594 26.847656 C 63.71875 26.753906 63.613281 26.691406 63.496094 26.683594 C 62.890625 26.632812 62.914062 27.542969 63.050781 27.949219 C 63.195312 28.375 63.464844 28.753906 63.742188 29.113281 C 63.855469 29.257812 63.976562 29.394531 64.105469 29.523438 C 64.125 29.542969 64.148438 29.5625 64.167969 29.578125 C 63.738281 29.546875 63.304688 29.515625 62.882812 29.46875 C 62.789062 29.457031 62.691406 29.441406 62.597656 29.425781 C 62.601562 28.722656 62.296875 27.988281 61.996094 27.421875 C 61.921875 27.296875 61.796875 27.03125 61.65625 26.832031 C 61.582031 26.730469 61.503906 26.648438 61.421875 26.601562 C 61.339844 26.554688 61.257812 26.546875 61.164062 26.597656 C 60.945312 26.726562 60.882812 26.980469 60.90625 27.246094 C 60.929688 27.515625 61.03125 27.804688 61.105469 27.972656 C 61.265625 28.390625 61.554688 28.953125 61.949219 29.316406 C 61.511719 29.230469 61.078125 29.125 60.652344 28.992188 C 60.441406 28.925781 60.238281 28.851562 60.03125 28.773438 C 60.160156 28.617188 60.230469 28.40625 60.269531 28.1875 C 60.332031 27.816406 60.328125 27.40625 60.316406 27.136719 C 60.277344 26.558594 60.03125 26.066406 59.742188 25.808594 C 59.632812 25.714844 59.410156 25.734375 59.25 25.882812 C 59.058594 26.0625 58.996094 26.273438 58.992188 26.5 C 58.988281 26.671875 59.007812 26.839844 59.039062 27.011719 C 59.058594 27.097656 59.078125 27.183594 59.097656 27.273438 C 59.128906 27.355469 59.15625 27.4375 59.183594 27.515625 C 59.257812 27.734375 59.320312 27.960938 59.378906 28.191406 C 59.410156 28.304688 59.441406 28.425781 59.472656 28.546875 C 59.308594 28.472656 59.144531 28.398438 58.984375 28.320312 C 58.742188 27.824219 58.132812 27.398438 57.8125 27.027344 C 57.726562 26.949219 57.644531 26.835938 57.550781 26.730469 C 57.457031 26.621094 57.347656 26.519531 57.234375 26.429688 C 57.03125 26.238281 56.773438 26.113281 56.460938 26.191406 C 56.121094 26.273438 56.03125 26.511719 56.089844 26.800781 C 56.105469 26.894531 56.140625 26.988281 56.183594 27.082031 C 56.132812 27.183594 56.085938 27.296875 56.046875 27.417969 C 55.917969 27.816406 55.910156 28.28125 55.929688 28.449219 C 55.972656 28.367188 56.238281 27.910156 56.484375 27.496094 C 56.503906 27.515625 56.527344 27.539062 56.546875 27.558594 C 56.652344 27.640625 56.753906 27.714844 56.859375 27.785156 C 56.964844 27.855469 57.085938 27.90625 57.199219 27.960938 C 57.429688 28.066406 57.648438 28.171875 57.890625 28.230469 C 58.058594 28.28125 58.230469 28.351562 58.402344 28.40625 C 58.488281 28.425781 58.574219 28.445312 58.65625 28.457031 C 58.875 28.628906 59.101562 28.785156 59.347656 28.921875 C 59.238281 28.972656 59.125 29.019531 59.007812 29.0625 C 58.808594 29.132812 58.601562 29.171875 58.390625 29.214844 C 57.957031 29.308594 57.511719 29.324219 57.03125 29.367188 C 56.867188 29.382812 56.691406 29.433594 56.546875 29.511719 C 56.414062 29.429688 56.285156 29.339844 56.160156 29.246094 C 56.046875 29.0625 55.988281 28.847656 55.929688 28.632812 C 55.921875 28.605469 55.871094 28.601562 55.867188 28.636719 C 55.839844 28.769531 55.859375 28.910156 55.90625 29.039062 C 55.558594 28.742188 55.246094 28.402344 54.988281 28.035156 C 54.964844 28.003906 54.941406 27.96875 54.917969 27.933594 C 54.804688 27.679688 54.746094 27.421875 54.765625 27.128906 C 54.765625 27.097656 54.714844 27.082031 54.699219 27.113281 C 54.640625 27.234375 54.628906 27.375 54.648438 27.519531 C 54.265625 26.902344 53.941406 26.246094 53.691406 25.558594 C 53.710938 25.425781 53.761719 25.289062 53.8125 25.164062 C 53.824219 25.132812 53.792969 25.109375 53.769531 25.132812 C 53.703125 25.195312 53.65625 25.285156 53.628906 25.386719 C 53.554688 25.171875 53.488281 24.957031 53.425781 24.742188 C 53.40625 24.65625 53.273438 24.691406 53.292969 24.777344 C 53.359375 25.015625 53.433594 25.257812 53.507812 25.496094 C 53.351562 25.320312 53.15625 25.210938 52.914062 25.269531 C 52.890625 25.277344 52.898438 25.320312 52.925781 25.316406 C 53.3125 25.292969 53.480469 25.574219 53.632812 25.871094 C 53.644531 25.902344 53.652344 25.929688 53.664062 25.953125 C 53.664062 25.957031 53.664062 25.957031 53.664062 25.957031 C 53.921875 26.664062 54.242188 27.347656 54.660156 27.984375 C 54.421875 27.847656 54.167969 27.734375 53.902344 27.660156 C 53.867188 27.652344 53.855469 27.703125 53.886719 27.714844 C 54.222656 27.828125 54.503906 28.003906 54.785156 28.171875 C 54.785156 28.175781 54.785156 28.175781 54.789062 28.175781 C 55.054688 28.554688 55.359375 28.933594 55.71875 29.265625 C 55.464844 29.210938 55.203125 29.167969 54.933594 29.167969 C 54.90625 29.167969 54.90625 29.210938 54.933594 29.210938 C 55.230469 29.21875 55.519531 29.277344 55.800781 29.332031 C 55.867188 29.390625 55.933594 29.453125 56.003906 29.507812 C 56.101562 29.585938 56.207031 29.65625 56.3125 29.722656 C 56.273438 29.796875 56.257812 29.882812 56.285156 29.980469 C 56.285156 29.984375 56.289062 29.984375 56.289062 29.988281 C 55.695312 29.972656 55.097656 29.960938 54.496094 29.9375 C 54.382812 29.929688 54.265625 29.921875 54.152344 29.914062 C 54.152344 29.789062 54.113281 29.660156 54.09375 29.550781 C 54.082031 29.5 54.074219 29.453125 54.0625 29.402344 C 54.433594 29.328125 54.761719 29.203125 54.824219 29.175781 C 54.6875 29.140625 54.335938 29.050781 53.980469 28.972656 C 53.941406 28.792969 53.90625 28.609375 53.871094 28.425781 C 53.832031 28.226562 53.78125 27.910156 53.707031 27.625 C 53.734375 27.621094 53.761719 27.617188 53.789062 27.609375 C 53.757812 27.582031 53.71875 27.554688 53.683594 27.527344 C 53.589844 27.230469 53.472656 26.949219 53.253906 26.925781 C 53.089844 26.898438 52.964844 26.96875 52.875 27.089844 C 52.550781 26.945312 52.097656 26.753906 51.929688 26.847656 C 51.636719 27.042969 52.382812 27.433594 52.542969 27.496094 C 52.597656 27.515625 52.648438 27.535156 52.699219 27.550781 C 52.664062 27.769531 52.664062 28 52.699219 28.160156 C 52.757812 28.457031 52.878906 28.742188 53.027344 29.011719 C 53.011719 29.035156 52.996094 29.066406 52.988281 29.097656 C 52.949219 29.289062 53.082031 29.390625 53.285156 29.433594 C 53.378906 29.5625 53.476562 29.6875 53.585938 29.8125 C 53.601562 29.832031 53.621094 29.847656 53.640625 29.863281 C 53.210938 29.820312 52.785156 29.761719 52.367188 29.671875 C 52.273438 29.648438 52.183594 29.621094 52.089844 29.597656 C 52.128906 29.273438 52.105469 28.933594 52.050781 28.609375 C 51.984375 28.230469 51.882812 27.835938 51.769531 27.519531 C 51.71875 27.386719 51.640625 27.101562 51.53125 26.882812 C 51.472656 26.773438 51.410156 26.679688 51.335938 26.625 C 51.261719 26.5625 51.179688 26.539062 51.078125 26.578125 C 50.832031 26.671875 50.738281 26.917969 50.71875 27.1875 C 50.703125 27.457031 50.765625 27.765625 50.808594 27.941406 C 50.882812 28.246094 50.988281 28.644531 51.175781 28.984375 C 51.253906 29.136719 51.347656 29.277344 51.453125 29.40625 C 51.027344 29.261719 50.609375 29.09375 50.203125 28.898438 C 50.003906 28.796875 49.808594 28.691406 49.613281 28.582031 C 49.765625 28.449219 49.867188 28.246094 49.941406 28.03125 C 50.058594 27.671875 50.109375 27.253906 50.128906 26.980469 C 50.164062 26.394531 49.949219 25.84375 49.609375 25.507812 C 49.480469 25.382812 49.226562 25.359375 49.046875 25.5 C 48.835938 25.664062 48.785156 25.878906 48.773438 26.125 C 48.753906 26.476562 48.824219 26.855469 48.914062 27.199219 C 48.96875 27.429688 49.011719 27.664062 49.039062 27.902344 C 49.054688 28.027344 49.070312 28.148438 49.085938 28.273438 C 48.929688 28.179688 48.777344 28.082031 48.625 27.984375 C 48.441406 27.457031 47.847656 26.960938 47.519531 26.574219 C 47.355469 26.394531 47.15625 26.132812 46.90625 25.957031 C 46.675781 25.769531 46.402344 25.660156 46.101562 25.765625 C 45.773438 25.886719 45.703125 26.140625 45.773438 26.414062 C 45.808594 26.550781 45.878906 26.691406 45.960938 26.820312 C 46.003906 26.882812 46.054688 26.9375 46.101562 26.988281 C 46.011719 27.097656 45.984375 27.316406 46.007812 27.535156 C 46.035156 27.796875 46.136719 28.085938 46.183594 28.1875 C 46.195312 28.125 46.265625 27.75 46.3125 27.429688 C 46.324219 27.339844 46.332031 27.253906 46.335938 27.183594 C 46.507812 27.304688 46.6875 27.417969 46.875 27.503906 C 47.09375 27.613281 47.3125 27.714844 47.539062 27.796875 C 47.703125 27.859375 47.867188 27.9375 48.035156 28.007812 C 48.117188 28.039062 48.199219 28.066406 48.28125 28.085938 C 48.476562 28.28125 48.683594 28.46875 48.910156 28.632812 C 48.792969 28.671875 48.671875 28.703125 48.554688 28.730469 C 48.34375 28.773438 48.136719 28.796875 47.921875 28.816406 C 47.632812 28.847656 47.347656 28.851562 47.050781 28.863281 C 46.863281 28.789062 46.675781 28.71875 46.492188 28.640625 C 46.386719 28.542969 46.304688 28.429688 46.222656 28.304688 C 46.210938 28.289062 46.179688 28.292969 46.183594 28.316406 C 46.195312 28.402344 46.230469 28.476562 46.277344 28.542969 C 46.015625 28.425781 45.757812 28.296875 45.519531 28.148438 C 45.5 28.132812 45.480469 28.121094 45.464844 28.109375 C 45.332031 27.980469 45.238281 27.835938 45.167969 27.660156 C 45.160156 27.640625 45.125 27.644531 45.125 27.667969 C 45.125 27.753906 45.15625 27.839844 45.203125 27.921875 C 44.828125 27.648438 44.46875 27.355469 44.136719 27.03125 C 44.109375 26.945312 44.101562 26.855469 44.09375 26.769531 C 44.09375 26.75 44.066406 26.742188 44.058594 26.761719 C 44.039062 26.820312 44.042969 26.882812 44.054688 26.949219 C 43.953125 26.847656 43.851562 26.746094 43.753906 26.636719 C 43.71875 26.59375 43.652344 26.652344 43.691406 26.695312 C 43.796875 26.8125 43.90625 26.929688 44.019531 27.046875 C 43.878906 26.988281 43.734375 26.972656 43.609375 27.078125 C 43.597656 27.089844 43.613281 27.113281 43.628906 27.105469 C 43.855469 26.972656 44.03125 27.101562 44.199219 27.238281 C 44.207031 27.246094 44.214844 27.257812 44.222656 27.265625 C 44.226562 27.269531 44.234375 27.269531 44.238281 27.269531 C 44.570312 27.601562 44.925781 27.914062 45.3125 28.1875 C 45.300781 28.1875 45.289062 28.183594 45.277344 28.179688 C 45.121094 28.160156 44.957031 28.160156 44.796875 28.183594 C 44.773438 28.1875 44.78125 28.21875 44.804688 28.21875 C 45.027344 28.195312 45.222656 28.234375 45.425781 28.269531 C 45.429688 28.273438 45.429688 28.273438 45.433594 28.277344 C 45.679688 28.433594 45.945312 28.589844 46.222656 28.722656 C 46.175781 28.730469 46.128906 28.734375 46.082031 28.742188 C 45.964844 28.757812 45.847656 28.777344 45.730469 28.820312 C 45.714844 28.824219 45.722656 28.851562 45.742188 28.847656 C 45.859375 28.804688 45.96875 28.792969 46.089844 28.773438 C 46.152344 28.765625 46.214844 28.757812 46.277344 28.75 C 46.375 28.796875 46.476562 28.84375 46.582031 28.882812 C 46.339844 28.902344 46.066406 28.996094 45.921875 29.164062 C 45.847656 29.246094 45.804688 29.347656 45.824219 29.460938 C 45.671875 29.496094 45.523438 29.53125 45.371094 29.566406 C 45.34375 29.433594 45.265625 29.316406 45.195312 29.203125 C 45.425781 29.0625 45.636719 28.882812 45.671875 28.851562 C 45.574219 28.855469 45.300781 28.890625 45.046875 28.949219 C 45.039062 28.949219 45.035156 28.953125 45.027344 28.953125 C 44.890625 28.742188 44.753906 28.535156 44.613281 28.324219 C 44.601562 28.308594 44.585938 28.292969 44.574219 28.273438 C 44.621094 28.246094 44.671875 28.21875 44.71875 28.1875 C 44.644531 28.164062 44.566406 28.152344 44.484375 28.144531 C 44.230469 27.777344 43.832031 27.238281 43.449219 27.351562 C 43.445312 27.351562 43.445312 27.351562 43.445312 27.351562 C 43.519531 27.289062 43.578125 27.21875 43.585938 27.144531 C 43.460938 27.226562 43.257812 27.199219 43.101562 27.179688 C 42.976562 27.167969 42.460938 27.019531 42.363281 27.113281 C 42.207031 27.292969 42.660156 27.5 42.785156 27.53125 C 42.921875 27.5625 43.101562 27.53125 43.257812 27.464844 C 43.027344 27.722656 43.296875 28.28125 43.484375 28.511719 C 43.746094 28.824219 44.097656 29.0625 44.445312 29.28125 C 44.671875 29.425781 44.910156 29.511719 45.148438 29.605469 C 45.152344 29.609375 45.15625 29.613281 45.160156 29.617188 C 44.714844 29.722656 44.273438 29.824219 43.835938 29.902344 C 43.726562 29.921875 43.617188 29.933594 43.507812 29.953125 C 43.269531 29.359375 42.792969 28.832031 42.324219 28.46875 C 42.125 28.324219 41.546875 27.761719 41.3125 28.066406 C 41.011719 28.429688 41.539062 28.953125 41.777344 29.179688 C 42.082031 29.492188 42.515625 29.851562 42.96875 30.03125 C 42.800781 30.054688 42.632812 30.078125 42.464844 30.105469 C 42.011719 30.152344 41.554688 30.183594 41.097656 30.230469 C 41.191406 29.773438 40.882812 29.1875 40.6875 28.835938 C 40.554688 28.613281 40.371094 28.425781 40.167969 28.289062 C 39.960938 28.152344 39.730469 28.082031 39.515625 28.035156 C 39.367188 28.007812 39.179688 28.101562 39.121094 28.285156 C 39.058594 28.503906 39.140625 28.664062 39.253906 28.84375 C 39.601562 29.410156 40.136719 29.726562 40.566406 30.226562 C 40.363281 30.230469 40.15625 30.242188 39.996094 30.304688 C 39.570312 30.085938 38.96875 29.988281 38.53125 29.917969 C 38.121094 29.824219 37.410156 29.609375 37.109375 30.082031 C 36.777344 30.585938 37.496094 30.890625 37.902344 30.90625 C 38.277344 30.933594 38.660156 30.855469 39.03125 30.777344 C 39.21875 30.738281 39.402344 30.691406 39.582031 30.644531 C 39.726562 30.613281 39.867188 30.554688 40.007812 30.503906 C 40.042969 30.507812 40.074219 30.511719 40.09375 30.511719 C 40.117188 30.511719 40.132812 30.5 40.144531 30.484375 L 40.308594 30.488281 C 40.464844 30.492188 40.621094 30.5 40.773438 30.5 C 40.777344 30.5 40.777344 30.503906 40.777344 30.503906 C 40.777344 30.507812 40.777344 30.507812 40.777344 30.511719 C 40.777344 30.515625 40.777344 30.515625 40.777344 30.519531 C 40.589844 30.839844 40.335938 31.101562 40.054688 31.34375 C 39.90625 31.46875 39.75 31.601562 39.59375 31.714844 C 39.433594 31.828125 39.273438 31.949219 39.113281 32.074219 C 38.820312 32.316406 38.527344 32.90625 39.207031 32.972656 C 39.359375 32.988281 39.515625 32.984375 39.667969 32.953125 C 39.8125 32.917969 39.957031 32.863281 40.089844 32.796875 C 40.355469 32.664062 40.585938 32.476562 40.746094 32.273438 C 41.082031 31.867188 41.390625 30.953125 40.980469 30.507812 C 40.980469 30.503906 40.984375 30.5 40.984375 30.5 C 41.058594 30.496094 41.132812 30.492188 41.207031 30.488281 C 41.65625 30.445312 42.105469 30.417969 42.550781 30.363281 C 42.796875 30.324219 43.042969 30.289062 43.285156 30.253906 C 42.808594 30.515625 42.410156 31.066406 42.0625 31.460938 C 41.886719 31.683594 41.222656 32.40625 41.617188 32.695312 C 41.992188 32.964844 42.519531 32.410156 42.730469 32.175781 C 43.222656 31.640625 43.585938 30.910156 43.582031 30.21875 C 43.582031 30.214844 43.578125 30.210938 43.578125 30.210938 C 43.679688 30.195312 43.78125 30.179688 43.882812 30.164062 C 44.246094 30.101562 44.617188 30.035156 44.992188 29.96875 C 44.898438 30.058594 44.800781 30.15625 44.714844 30.265625 C 44.457031 30.601562 44.21875 30.960938 44.027344 31.347656 C 43.859375 31.671875 43.667969 32.589844 44.367188 32.527344 C 44.902344 32.46875 45.085938 31.625 45.183594 31.253906 C 45.273438 30.914062 45.332031 30.5625 45.382812 30.210938 C 45.398438 30.105469 45.417969 29.996094 45.421875 29.886719 C 45.613281 29.847656 45.804688 29.804688 45.996094 29.761719 C 46.023438 29.789062 46.050781 29.816406 46.085938 29.84375 C 46.226562 29.960938 46.378906 30.058594 46.542969 30.132812 C 46.710938 30.203125 46.886719 30.253906 47.0625 30.285156 C 47.40625 30.355469 47.761719 30.324219 48.050781 30.234375 C 48.351562 30.140625 48.746094 29.921875 49.03125 29.613281 C 49.21875 29.410156 49.351562 29.183594 49.378906 28.949219 C 49.53125 29.042969 49.6875 29.128906 49.84375 29.210938 C 50.308594 29.441406 50.796875 29.632812 51.289062 29.785156 C 51.144531 29.808594 51 29.835938 50.855469 29.875 C 50.480469 29.984375 50.109375 30.105469 49.78125 30.214844 C 49.609375 30.273438 49.257812 30.371094 48.96875 30.515625 C 48.679688 30.660156 48.449219 30.855469 48.574219 31.140625 C 48.6875 31.410156 48.972656 31.5 49.277344 31.496094 C 49.582031 31.492188 49.890625 31.421875 50.089844 31.363281 C 50.503906 31.25 50.910156 31.074219 51.257812 30.8125 C 51.570312 30.578125 51.816406 30.296875 51.976562 29.976562 C 52.460938 30.101562 52.957031 30.199219 53.453125 30.265625 C 53.335938 30.320312 53.21875 30.386719 53.105469 30.449219 C 52.679688 30.683594 52.257812 30.910156 51.847656 31.199219 C 51.476562 31.457031 50.773438 32.289062 51.652344 32.621094 C 51.992188 32.738281 52.324219 32.617188 52.601562 32.398438 C 52.882812 32.183594 53.105469 31.898438 53.246094 31.71875 C 53.5 31.410156 53.714844 31.066406 53.90625 30.714844 C 53.96875 30.605469 54.058594 30.46875 54.097656 30.332031 C 54.886719 30.386719 55.671875 30.355469 56.433594 30.207031 C 56.480469 30.257812 56.539062 30.308594 56.617188 30.363281 C 56.785156 30.480469 56.96875 30.585938 57.15625 30.648438 C 57.339844 30.707031 57.535156 30.746094 57.71875 30.761719 C 58.097656 30.808594 58.449219 30.726562 58.726562 30.605469 C 59.015625 30.480469 59.378906 30.207031 59.609375 29.867188 C 59.765625 29.640625 59.859375 29.398438 59.855469 29.167969 C 60.019531 29.238281 60.183594 29.300781 60.347656 29.351562 C 60.839844 29.511719 61.339844 29.621094 61.839844 29.707031 C 61.355469 29.851562 60.859375 30.136719 60.4375 30.34375 C 60.28125 30.425781 59.949219 30.578125 59.683594 30.757812 C 59.421875 30.941406 59.226562 31.167969 59.390625 31.429688 C 59.46875 31.550781 59.582031 31.625 59.710938 31.660156 C 59.839844 31.695312 59.984375 31.691406 60.132812 31.667969 C 60.421875 31.621094 60.714844 31.503906 60.890625 31.417969 C 61.609375 31.105469 62.273438 30.507812 62.53125 29.8125 C 63.019531 29.878906 63.503906 29.929688 63.992188 29.976562 C 63.878906 30.039062 63.769531 30.109375 63.660156 30.175781 C 63.265625 30.429688 62.882812 30.703125 62.527344 31.023438 C 62.195312 31.320312 61.644531 32.21875 62.457031 32.441406 C 63.074219 32.601562 63.589844 31.789062 63.839844 31.421875 C 64.0625 31.097656 64.257812 30.757812 64.4375 30.410156 C 64.496094 30.300781 64.582031 30.167969 64.621094 30.03125 C 65.421875 30.089844 66.21875 30.125 67.011719 30.136719 C 67.371094 30.277344 67.746094 30.347656 68.089844 30.371094 C 68.121094 30.386719 68.144531 30.402344 68.164062 30.40625 C 68.183594 30.414062 68.199219 30.410156 68.214844 30.402344 C 68.257812 30.425781 68.304688 30.445312 68.347656 30.464844 C 68.476562 30.519531 68.605469 30.566406 68.738281 30.613281 C 68.738281 30.613281 68.738281 30.617188 68.738281 30.617188 C 68.738281 30.617188 68.738281 30.621094 68.738281 30.621094 C 68.738281 30.625 68.738281 30.625 68.734375 30.628906 C 68.214844 31.074219 67.496094 31.175781 66.710938 31.253906 C 66.34375 31.289062 65.78125 31.578125 66.445312 32.011719 C 67.050781 32.378906 67.769531 32.328125 68.183594 32.085938 C 68.410156 31.960938 68.671875 31.71875 68.824219 31.4375 C 68.964844 31.183594 69.015625 30.90625 68.910156 30.675781 C 68.914062 30.671875 68.917969 30.671875 68.921875 30.667969 C 68.984375 30.6875 69.046875 30.707031 69.109375 30.722656 C 69.71875 30.878906 70.339844 30.964844 70.960938 31.015625 C 70.492188 31.144531 70.019531 31.511719 69.609375 31.777344 C 69.5 31.847656 69.257812 32.003906 69.0625 32.167969 C 68.871094 32.335938 68.734375 32.527344 68.882812 32.707031 C 69.027344 32.878906 69.261719 32.875 69.484375 32.8125 C 69.707031 32.742188 69.921875 32.617188 70.042969 32.539062 C 70.617188 32.203125 71.082031 31.640625 71.214844 31.035156 C 71.21875 31.035156 71.214844 31.03125 71.214844 31.03125 C 71.304688 31.035156 71.398438 31.042969 71.488281 31.046875 C 71.8125 31.066406 72.148438 31.078125 72.488281 31.085938 C 72.390625 31.148438 72.289062 31.214844 72.195312 31.296875 C 71.910156 31.542969 71.632812 31.804688 71.382812 32.097656 C 71.175781 32.347656 70.808594 33.105469 71.457031 33.1875 C 71.960938 33.246094 72.28125 32.539062 72.429688 32.234375 C 72.570312 31.949219 72.6875 31.65625 72.789062 31.359375 C 72.820312 31.273438 72.855469 31.179688 72.878906 31.085938 C 73.445312 31.085938 74.011719 31.050781 74.554688 30.957031 C 74.566406 30.957031 74.578125 30.953125 74.585938 30.949219 C 74.707031 30.925781 74.828125 30.902344 74.949219 30.875 C 74.996094 30.863281 74.988281 30.777344 74.9375 30.773438 " fill-opacity="1" fill-rule="nonzero"/></g><path fill="#1d6638" d="M 45.207031 27.558594 C 45.300781 27.308594 45.351562 27.085938 45.355469 26.816406 C 45.351562 26.71875 45.351562 26.277344 45.183594 26.414062 C 45.050781 26.519531 45.070312 27.007812 45.085938 27.152344 C 45.117188 27.289062 45.128906 27.453125 45.207031 27.558594 " fill-opacity="1" fill-rule="nonzero"/><path fill="#1d6638" d="M 44.574219 25.90625 C 44.570312 25.792969 44.507812 25.40625 44.3125 25.527344 C 44.203125 25.597656 44.21875 26.054688 44.207031 26.171875 C 44.191406 26.320312 44.195312 26.5 44.109375 26.609375 C 44.347656 26.578125 44.5625 26.15625 44.574219 25.90625 " fill-opacity="1" fill-rule="nonzero"/><path fill="#1d6638" d="M 43.113281 26.167969 C 43.339844 26.34375 43.625 26.480469 43.671875 26.585938 C 43.644531 26.503906 43.476562 26.199219 43.320312 25.9375 C 43.160156 25.675781 42.96875 25.476562 42.824219 25.644531 C 42.695312 25.800781 42.882812 25.996094 43.113281 26.167969 " fill-opacity="1" fill-rule="nonzero"/><path fill="#1d6638" d="M 51.429688 25.316406 C 51.800781 25.632812 52.617188 25.675781 52.835938 25.34375 C 52.597656 25.375 52.34375 25.1875 52.121094 25.039062 C 52.039062 24.984375 51.835938 24.808594 51.636719 24.644531 C 51.433594 24.480469 51.234375 24.324219 51.128906 24.355469 C 50.957031 24.421875 50.984375 24.636719 51.085938 24.839844 C 51.179688 25.046875 51.351562 25.242188 51.429688 25.316406 " fill-opacity="1" fill-rule="nonzero"/><path fill="#1d6638" d="M 54.882812 27.007812 C 55.183594 26.699219 55.390625 26.414062 55.566406 26.046875 C 55.621094 25.902344 55.925781 25.289062 55.601562 25.375 C 55.339844 25.433594 55.023438 26.140625 54.964844 26.351562 C 54.921875 26.5625 54.851562 26.800781 54.882812 27.007812 " fill-opacity="1" fill-rule="nonzero"/><path fill="#1d6638" d="M 55.09375 24.292969 C 55.164062 24.136719 55.371094 23.605469 55.019531 23.628906 C 54.917969 23.640625 54.777344 23.789062 54.660156 23.964844 C 54.539062 24.140625 54.441406 24.335938 54.394531 24.410156 C 54.269531 24.597656 54.148438 24.851562 53.945312 24.953125 C 54.292969 25.066406 54.910156 24.613281 55.09375 24.292969 " fill-opacity="1" fill-rule="nonzero"/><g clip-path="url(#1982f84d3d)"><path fill="#1d6638" d="M 53.34375 24.609375 C 53.351562 24.480469 53.359375 23.929688 53.347656 23.453125 C 53.320312 22.980469 53.28125 22.566406 52.9375 22.644531 C 52.628906 22.730469 52.695312 23.183594 52.878906 23.605469 C 53.058594 24.035156 53.347656 24.433594 53.34375 24.609375 " fill-opacity="1" fill-rule="nonzero"/></g><path fill="#1d6638" d="M 64.425781 28.359375 C 64.363281 28.574219 64.648438 28.605469 64.957031 28.566406 C 65.261719 28.53125 65.585938 28.425781 65.640625 28.410156 C 65.542969 28.378906 65.265625 28.292969 64.996094 28.25 C 64.730469 28.199219 64.472656 28.191406 64.425781 28.359375 " fill-opacity="1" fill-rule="nonzero"/><path fill="#1d6638" d="M 63.328125 25.714844 C 63.585938 25.976562 64.144531 26.027344 64.300781 25.792969 C 64.140625 25.804688 63.957031 25.664062 63.8125 25.539062 C 63.757812 25.492188 63.625 25.34375 63.492188 25.199219 C 63.363281 25.050781 63.242188 24.898438 63.167969 24.910156 C 63.046875 24.941406 63.039062 25.132812 63.105469 25.304688 C 63.164062 25.480469 63.273438 25.652344 63.328125 25.714844 " fill-opacity="1" fill-rule="nonzero"/><path fill="#1d6638" d="M 66.898438 27.285156 C 67.074219 26.972656 67.199219 26.699219 66.964844 26.703125 C 66.78125 26.703125 66.632812 26.949219 66.546875 27.242188 C 66.464844 27.53125 66.441406 27.863281 66.445312 27.980469 C 66.484375 27.925781 66.714844 27.589844 66.898438 27.285156 " fill-opacity="1" fill-rule="nonzero"/><path fill="#1d6638" d="M 65.726562 26.929688 C 65.929688 26.714844 66.066406 26.511719 66.183594 26.253906 C 66.210938 26.152344 66.417969 25.734375 66.195312 25.800781 C 66.019531 25.84375 65.804688 26.328125 65.773438 26.476562 C 65.746094 26.621094 65.699219 26.789062 65.726562 26.929688 " fill-opacity="1" fill-rule="nonzero"/><path fill="#1d6638" d="M 65.878906 25.140625 C 65.914062 25.097656 65.972656 25 65.992188 24.921875 C 66.011719 24.84375 66.011719 24.789062 65.886719 24.78125 C 65.816406 24.78125 65.707031 24.847656 65.605469 24.941406 C 65.519531 25.035156 65.4375 25.15625 65.398438 25.199219 C 65.292969 25.3125 65.21875 25.476562 65.070312 25.542969 C 65.304688 25.621094 65.738281 25.320312 65.878906 25.140625 " fill-opacity="1" fill-rule="nonzero"/><path fill="#1d6638" d="M 64.578125 25.003906 C 64.628906 25.128906 64.679688 25.230469 64.667969 25.292969 C 64.679688 25.25 64.683594 25.132812 64.699219 24.988281 C 64.730469 24.84375 64.734375 24.671875 64.773438 24.515625 C 64.789062 24.4375 64.792969 24.359375 64.804688 24.289062 C 64.816406 24.222656 64.824219 24.160156 64.816406 24.105469 C 64.808594 23.996094 64.757812 23.914062 64.640625 23.90625 C 64.429688 23.894531 64.359375 24.230469 64.4375 24.554688 C 64.460938 24.71875 64.539062 24.875 64.578125 25.003906 " fill-opacity="1" fill-rule="nonzero"/><path fill="#1d6638" d="M 70.597656 28.382812 C 70.535156 28.632812 70.902344 28.53125 71.007812 28.503906 C 71.234375 28.402344 71.632812 28.046875 71.617188 27.789062 C 71.519531 27.914062 71.332031 27.972656 71.191406 28.035156 C 71.078125 28.074219 70.628906 28.242188 70.597656 28.382812 " fill-opacity="1" fill-rule="nonzero"/><path fill="#1d6638" d="M 74.613281 27.761719 C 74.394531 27.742188 74.328125 28.046875 74.277344 28.375 C 74.230469 28.703125 74.195312 29.046875 74.1875 29.171875 C 74.230469 29.121094 74.492188 28.808594 74.660156 28.472656 C 74.820312 28.144531 74.890625 27.785156 74.613281 27.761719 " fill-opacity="1" fill-rule="nonzero"/><path fill="#1d6638" d="M 73.21875 27.589844 C 73.261719 27.753906 73.289062 27.925781 73.351562 28.074219 C 73.492188 27.808594 73.554688 27.566406 73.519531 27.238281 C 73.515625 27.117188 73.367188 26.546875 73.1875 26.699219 C 73.121094 26.761719 73.132812 26.945312 73.152344 27.132812 C 73.175781 27.320312 73.210938 27.503906 73.21875 27.589844 " fill-opacity="1" fill-rule="nonzero"/><path fill="#1d6638" d="M 71.972656 27.070312 C 72.210938 26.976562 72.296875 26.445312 72.128906 26.167969 C 72.058594 26.039062 71.671875 25.652344 71.542969 25.859375 C 71.484375 25.988281 71.824219 26.445312 71.867188 26.578125 C 71.933594 26.738281 72.023438 26.921875 71.972656 27.070312 " fill-opacity="1" fill-rule="nonzero"/><path fill="#1d6638" d="M 70.789062 27.121094 C 70.9375 27.121094 71.09375 27.121094 71.226562 27.140625 C 71.355469 27.152344 71.464844 27.167969 71.511719 27.210938 C 71.449219 27.152344 71.148438 26.914062 70.832031 26.789062 C 70.519531 26.660156 70.214844 26.632812 70.222656 26.867188 C 70.230469 27.09375 70.496094 27.105469 70.789062 27.121094 " fill-opacity="1" fill-rule="nonzero"/></svg>